<svg xmlns="http://www.w3.org/2000/svg" fill="none" viewBox="0 0 390 260"><path fill="#FFF4BC" d="M0 0h390v260H0z"/><path fill="#343333" d="M121.82 135.6c2.46-.4 4.15-1.81 6.41-1.84 2.56-.04 5.02 0 7.06 1.5 1.66 1.24 3.38 1.2 5.04 1.14.83-.38 1.3-.89 1.44-1.53 1.24-6.03 1.43-12.03-.39-17.97a414.01 414.01 0 0 0-5.55-17.17c-1.09-3.1-2.55-6.03-3.93-9a48.64 48.64 0 0 1-4.08-17.1c-.38-6.26-.06-12.68 1.85-18.83.54-1.7.58-3.58 1.05-5.37 3.32-12.7 11.84-20.65 23.3-26.07a46.52 46.52 0 0 1 15.8-4.53c6.96-.64 13.53.54 19.6 4.18 1.02.6 2.07 1.15 2.97 1.78 7.5 7 12.19 15.42 13.08 25.95 2.59-.9 3.67-3.03 5.36-4.37 5.65-4.53 12.26-6.93 18.93-9.38 4.5-1.63 9.29-1.44 13.72-3 3.55 1.05 7-.36 10.5-.3 7.53.1 14.53 1.96 21.1 5.63 6.67 3.7 12.45 8.36 16.63 14.77 1.18 1.82 1.66 4.12 2.4 6.23 2.83 8 4.56 16.27 4.27 24.76-.32 9.07-1.18 18.16-4.47 26.72a70 70 0 0 1-12.6 21.19c-5.91 6.76-13.1 11.78-19.86 17.4-4.63 3.82-10.08 6.63-15.16 9.92-4.21 2.71-8.94 4.37-13.37 6.57-5.3 2.62-10.85 4.57-16.31 6.74-4.82 1.91-9.9 3.22-14.81 4.91-6.93 2.43-14.14 3.8-21.2 5.72-3.76 1.02-7.68 1.53-11.58 2.17-3.96.67-7.98 1.18-12.16 1.82 1.12 6.35 4.28 12.35 2.27 19.08 1.75 1.47 1.88 3.58 1.82 5.56 9.35 7.14 14.33 17.68 22.12 25.56-.83 2.62-3 2.1-4.47 2.46-3.93.95-7.57.57-9.93-3.48-1.6-2.71-3.7-5.14-5.23-7.88-2.01-3.58-4.85-6.55-7.12-9.93-1.72-2.62-4.75-3.51-7.47-3.83a23.4 23.4 0 0 1-11.2-4.4c-1.6-1.15-3.26-2.24-4.66-3.58-5.27-4.98-11.27-9.1-16.5-14.17a116.54 116.54 0 0 1-15.7-18.7c-4.18-6.3-7.38-13.34-8.05-21.1-.32-3.86.55-7.79 2.72-10.85 2.58-3.67 6.44-5.71 11.45-4.37.96-1.89 1.98-3.7 3.87-4.82 1.78-1.06 3.95-.32 5.42-1.4 2.59.18 4 1.81 5.62 3.28v-.06Zm-8.65 39.68c0 1.56.7 2.42 2.36 2.42-.25.87.06 1.44.86 1.76.1.25.3.45.55.54.35.86.95 1.47 1.78 1.85l.58.6c1.98 4 5.87 6.14 8.9 9 1.95 1.83 4.15 3.4 6.16 5.28 3.29 3.12 6.83 6.12 11.36 7.5 3.07.92 3.35.86 5.59-1.85.51-4.54-.32-8.78-2.07-12.87-3.77.13-7.35-.48-10.67.86-.86-.5-1.53-.92-1.5-1.88a5.55 5.55 0 0 1 2.62-2.14h6.03c-.44-1.6 1.44-1.21 1.76-2.71l-9.6-16.05c1.37-.64 1.84-.04 2.42.83 2.17 3.28 4.5 6.44 6.25 9.99 1.19 2.33 2.3 4.72 4.47 6.47 4.6-.35 9.16.2 13.79-.73 3.03-.6 6.1-1.34 9.2-1.72 4.24-.55 8.42-1.53 12.57-2.56 2.77-.7 5.49-1.46 8.23-2.33 6.32-1.97 12.67-3.92 18.93-6.1 6.28-2.16 12.64-4.36 18.5-7.46 5.43-2.87 11.88-4.05 15.87-9.35.22-.29.7-.35 1.05-.54 5.02-2.62 9.55-5.94 14.14-9.2 2.97-2.13 5.56-4.69 8.43-6.89 5.58-4.28 10.37-9.29 13.5-15.7.45-.93 1.08-1.79 1.6-2.72a51.27 51.27 0 0 0 6.25-16.78c.45-2.43.64-4.92 1.09-7.34.73-4.06.63-8.24 1.11-12.36.6-4.97-.25-9.99-1.75-14.74-1.76-5.52-3.1-11.08-7.12-15.9-5.27-6.28-11.84-10.11-19.02-13.27-3.96-1.76-8.36-2.17-12.64-2.24-7.6-.12-15.13.48-22.53 2.65-7 2.05-13.54 4.7-19.38 9.07-3.44 2.55-6.57 5.2-7.85 9.5-.13.49-.5.93-1.24.9-1.06-.6-1.76-1.4-1.25-2.8.16-.49.48-1 .42-1.47-.45-3.36-.67-6.8-1.57-10.06-1.37-5.04-3.06-10.02-7.43-13.47-.42-.32-.74-.76-1.09-1.15-5.04-6.16-11.94-8.49-19.47-8.2-5.1.2-10.3.74-15.32 2.84-6.89 2.9-13.02 6.7-17.71 12.45-2.01 2.46-3.9 5.14-4.98 8.4-2.07 6.22-3.7 12.47-4.15 19.08-.16 2.23.67 4.5.07 6.45-.9 2.87.1 5.49.44 8.07.83 5.81 3.26 11.2 5.4 16.63 2.1 5.3 4.56 10.5 6.03 16.02 1.47 5.55 2.68 11.17 2.65 16.98 0 2.43-1.12 4.6-.9 6.77a15.34 15.34 0 0 1-3.28 3.57c-4.79 1.37-8.08-1.21-11.56-2.78-2.87.9-6.25.45-8.2 4 .07 1.46 0 3.31.29 5.13.25 1.66 2.2 3.03.86 5.3-3.26-1.79-3.67-5.65-6.1-7.95-1.5-.6-2.8-.48-3.7 1.22-.1 1.34 1.05 3-.73 4.08-8.05-2-10.4-.54-11.1 5.01.76 6.67 4.14 12 7.55 17.24.93 1.43 1.57 3.38 3.48 4.02-.06.57.13.92.8.83h-.03Zm-2.17-29.1c.1-2.69.54-4.35 2.2-5.44 1.85-1.18 3.67-.31 5.72 0-.39-2.04-1.38-3.6-1.22-5.45-2.55-1.15-4.56-.2-6.48.99a3.69 3.69 0 0 0-1.66 4.72c-1.18 1.18-2.07.64-3.12.32-3.48-1.02-7.92.93-9.3 4.09a17.9 17.9 0 0 0-1.17 11.16c.44 2.05 1.3 3.96 1.98 5.91 2.17 6.45 5.96 12.03 9.63 17.55 2.88 4.34 6.96 7.89 10.54 11.78 1.24 1.34 2.36 2.84 3.76 3.99 3.23 2.68 6.58 5.27 9.93 7.75 3.16 2.37 6.38 4.66 9.7 6.8 3.35 2.2 6.86 3.23 10.7.87 1.3-.8 2.9-1.15 4.24-1.66 2.49-6.26.96-17.84-2.71-21.23-.9 1.82-.93 1.82-.61 3.16.64 2.68 1.3 5.36 1.24 8.17-.16 5.08-1.3 6.58-6.06 8.1-5.8-.98-10.25-4.24-14.5-7.81a206.08 206.08 0 0 1-15.12-13.79c-4.08-4.18-7.66-8.74-11.2-13.3a43.9 43.9 0 0 1-6.6-11.6c-1.16-3.06-2.43-6.06-2.02-9.5.45-3.74 2.75-6.23 6.54-6.67a7.9 7.9 0 0 1 5.56 1.05l.03.03Zm66.26 89.96c-5.56-7.98-11.11-15.86-18.9-21.8-.64.61-1.34.87-1.4 1.76 4.56 4.75 7.69 10.79 12.54 15.32-.7 3 1.7 4.15 2.9 5.87 1.76.1 3.36.45 4.89-1.12l-.03-.03ZM253.76 175.92c4.5.12 8.4.89 10.85 4.98a23.53 23.53 0 0 1 9.9-7.19c5.52-2.13 12.99-.89 15.95 5.94a26.78 26.78 0 0 1 2.11 15c-.6 3.8-2.52 6.9-5.14 9.54a71.1 71.1 0 0 1-13.91 10.95c-5.43 3.26-14.17 6.35-19.76 6.9-1.72.16-3.29-.87-5.07-.61-1.25-1.85-3.16-2.97-3.8-4.89.64-5.55.64-10.88-.13-16.24-.67-4.7-.8-9.45.26-14.14 1.08-4.91 3.73-8.55 8.77-10.24h-.03Zm-3.83 43.02c2.59 0 4.7.45 6.51-.1 5.71-1.69 11.46-3.25 16.7-6.48 3.47-2.17 6.5-4.88 9.7-7.34a18.95 18.95 0 0 0 6.06-7.62c.35-.83.77-1.63.8-2.59.16-4.21.19-8.4-.9-12.54-1.3-4.92-6.67-8.36-11.52-6.83-5.1 1.6-9.89 3.9-12.22 9.54-3.13-.9-2.84-4.91-5.78-5.8-1.05-.07-2.26 0-3.38-.26-2.87-.77-5.08.35-6.29 2.68-2.46 4.72-3.7 9.8-2.58 15.16.83 3.99-.03 8.14 1.08 12.1-1.12 2.39-.38 4.9-.67 6.95l2.46 3.13h.03Z"/><path fill="#343333" d="M115.5 106.79c-4.66.63-8.01-1.82-11.23-3.93-5.14-3.41-8.75-8.33-11.08-14.04-.83-2.01-1.18-4.28-1.5-6.48-.86-6.1 3.93-11.24 9.8-10.47 1.79-.73 2.55-2.84 4.69-3.38 1.82-.45 3.64.86 4.95-.48 5.07 1.88 9.35 4.43 11.14 9.29 1.37 3.63 2.26 7.53 1.91 11.58-.64 7.05-2.84 13.34-8.71 17.9h.03ZM95.17 76.66c-.35 2.07-1.5 4.24-1.02 6.67 1.43 7.24 5.1 13.18 11.1 17.46 2.69 1.91 5.43 4.11 9.23 3.57 6.99-7.02 8.07-15.51 6.28-24.99a18.74 18.74 0 0 0-8.48-8.2c-2.27.13-4.8-.6-6.87.25-1.46 1.06-.83 2.9-2.55 3.67-2.62-1.24-5.3-1.05-7.7 1.6v-.03Z"/><path fill="#FFC629" d="M112.4 174.41c-1.91-.66-2.55-2.61-3.48-4.02-3.41-5.26-6.83-10.6-7.56-17.23.7-5.52 3.06-6.99 11.1-5.01 1.8-1.12.64-2.75.74-4.09.92-1.69 2.23-1.78 3.7-1.21 2.43 2.3 2.84 6.13 6.1 7.95 1.34-2.27-.6-3.6-.86-5.3-.3-1.79-.23-3.67-.3-5.14 1.96-3.51 5.34-3.1 8.21-3.99 3.48 1.56 6.77 4.18 11.55 2.78.93-.7 2.14-1.92 3.3-3.58-.26-2.17.85-4.34.89-6.76 0-5.81-1.19-11.43-2.65-16.98-1.47-5.52-3.93-10.73-6.03-16.02-2.18-5.43-4.6-10.82-5.4-16.63-.35-2.59-1.34-5.2-.45-8.08.61-1.94-.19-4.24-.06-6.44.42-6.61 2.08-12.83 4.15-19.09 1.09-3.22 2.94-5.9 4.98-8.4 4.69-5.74 10.82-9.54 17.71-12.44 5.01-2.1 10.18-2.65 15.32-2.84 7.53-.29 14.43 2.04 19.47 8.2.32.42.67.83 1.08 1.15 4.38 3.45 6.1 8.43 7.44 13.47.9 3.25 1.09 6.7 1.57 10.05.06.45-.26 1-.42 1.47-.51 1.4.2 2.23 1.25 2.8.73.04 1.11-.4 1.24-.88 1.28-4.28 4.44-6.93 7.85-9.52 5.87-4.37 12.38-7.02 19.38-9.06 7.4-2.17 14.93-2.78 22.53-2.65 4.24.07 8.68.51 12.64 2.24 7.18 3.16 13.75 6.99 19.02 13.27 4.02 4.82 5.4 10.38 7.11 15.9 1.5 4.75 2.37 9.76 1.76 14.74-.51 4.12-.38 8.3-1.12 12.35-.44 2.43-.64 4.92-1.08 7.34a51.8 51.8 0 0 1-6.26 16.8c-.5.88-1.15 1.75-1.6 2.7-3.12 6.42-7.9 11.4-13.5 15.7-2.87 2.21-5.45 4.76-8.42 6.9-4.6 3.26-9.13 6.58-14.14 9.2-.35.18-.83.25-1.05.54-4 5.3-10.47 6.47-15.86 9.35-5.88 3.1-12.23 5.3-18.51 7.47-6.26 2.17-12.61 4.11-18.93 6.1-2.71.85-5.46 1.65-8.24 2.32-4.14 1.02-8.3 2.04-12.57 2.55-3.1.39-6.16 1.12-9.2 1.73-4.59.9-9.18.35-13.78.73-2.17-1.75-3.29-4.18-4.47-6.48-1.79-3.54-4.12-6.7-6.25-9.99-.58-.89-1.06-1.47-2.43-.83 3.26 5.43 6.51 10.85 9.6 16.06-.34 1.5-2.23 1.08-1.75 2.71h-6.03a5.55 5.55 0 0 0-2.62 2.14c-.03.96.64 1.37 1.5 1.88 3.29-1.34 6.87-.73 10.66-.86a25.68 25.68 0 0 1 2.08 12.86c-2.27 2.68-2.56 2.78-5.59 1.85-4.53-1.37-8.04-4.37-11.36-7.5-1.98-1.88-4.21-3.44-6.16-5.26-3.06-2.9-6.96-5.05-8.9-9 .73.19 1.46.41 2.1.57 1-.57 1.5-1.24 1.21-2.58a48.21 48.21 0 0 1-5.96-7.47c-.9-1.47-1.15-3.2-2.17-4.57a44.63 44.63 0 0 1-7-13.85c-.22-.8-.6-1.82-2.1-1.3-.13 1.88-.67 3.92.2 5.7 1.3 2.69 2.42 5.5 4.33 7.89a10.57 10.57 0 0 1 2.52 7.6h-.03Zm40.57 2.4c-.67 0-.74-.54-1-.99-2.6-4.53-5.23-9.06-7.88-13.53a73 73 0 0 0-17.13-19.85c-.52-.42-1-.9-1.8-.07.4 1.4 1.7 2.17 2.66 3.16 3.9 3.93 7.88 7.79 10.98 12.42 4.46 6.73 8.84 13.56 12.44 20.8.48.93.86 1.92 1.4 2.78.33.51.84 1.12 1.57.39.2-1.89-1.37-3.32-1.21-5.17 1.08-.58 1.82 1.08 2.52.7 1.72-1.02 1.66-2.24 1.18-3.35-2.62-6.07-5.17-12.2-8.8-17.75-.77-1.18-1.99-2.14-3.07-3.1-.67-.57-1.44-.57-2.1.39.63 1.05 1.3 2.14 2 3.22 2.9 4.47 4.34 9.67 7.02 14.27a9.06 9.06 0 0 1 1.28 5.65l-.06.03Zm115.18-76.34c-3.54 2.74-6.8 5.17-9.03 8.68-1.4 2.2-3 4.27-4.34 6.54-2.1 3.6-1.85 7.56-1.6 11.43a16.4 16.4 0 0 0 3.64 3.47c1.34.42 3.07-.31 4.15.8 12.35-5.23 17.1-14.4 14.87-27.5-1.5-2.95-4.75-2.72-7.66-3.42h-.03ZM152.97 46.4c.54.99.7 1.85.8 2.78a3.94 3.94 0 0 0 4.34 3.6c3.83-.5 7.72-.83 11.1-3.1 2.59-1.72 4.95-3.73 7.89-4.97 1.88-.8 2.74-2.78 2.93-4.85.13-1.31 0-2.62 0-3.74-1.53-2.39-3.83-3.44-5.71-4.85-3.03 1.15-6.06-.57-9.13 1.31-2.74 1.7-5.94 2.71-8.01 5.36-1.92 2.46-2.8 5.5-4.25 8.5l.04-.04Zm88.25 100.25c-1.73 0-3.1 1.02-4.25 2.26-1.66 1.76-3.7 2.94-5.78 4.03-3.44 1.81-7.02 3.31-10.47 5.13a122.57 122.57 0 0 1-22.27 9.07c-1.53.45-2.78 1.75-4.34 1.66-3.45-.26-6.7 1.3-10.15.96-1.31-.13-2.62 0-3.16 1.75 2.61 1.28 5.14 1.88 7.91.93.6-.23 1.28-.23 1.92-.32 4.24-.55 8.3-1.4 12.38-3.07 5.87-2.39 11.81-4.53 17.59-7.18 5.55-2.52 10.82-5.58 16.21-8.42 1.91-1.02 3.93-2.2 5.23-4.34-.06-.74.3-1.7-.82-2.46Zm35.07-66.04c-5.17 1.7-6.2 3.42-5.27 8.46 2.39 1.34 4.57 1.89 6.55 1.63 3.25-2.94 4.08-5.1-1.28-10.09Z"/><path fill="#FFC629" d="M113.14 175.21c1.72-.06 2.42.83 2.36 2.46-1.66 0-2.36-.86-2.36-2.46ZM116.9 179.97c1.5-.22 2.01.48 1.79 1.85a3.5 3.5 0 0 1-1.79-1.85Z"/><path fill="#FFC629" d="M115.47 177.67c1.3.1.83 1.05.86 1.79-.83-.32-1.15-.93-.86-1.79ZM112.37 174.42c.64-.07.9.22.8.83-.67.1-.86-.26-.8-.83ZM249.93 218.97c-.74-.93-1.47-1.85-2.46-3.13.29-2.04-.45-4.56.67-6.96-1.12-3.95-.26-8.1-1.08-12.1-1.12-5.35.12-10.43 2.58-15.15 1.21-2.33 3.42-3.45 6.29-2.68 1.11.29 2.36.19 3.38.25 2.94.9 2.65 4.92 5.78 5.81 2.33-5.62 7.15-7.91 12.22-9.54 4.85-1.53 10.21 1.91 11.52 6.83 1.09 4.12 1.06 8.33.9 12.54-.04 1-.45 1.76-.8 2.59-1.31 3.1-3.6 5.71-6.07 7.63-3.19 2.45-6.22 5.16-9.7 7.34-5.23 3.22-10.98 4.78-16.69 6.47-1.82.55-3.93.1-6.51.1h-.03Zm37.27-30.13c-.54-1.21-.98-2.3-1.53-3.32-.57-.99-.76-2.26-1.94-2.87-7.98-.26-10.38 4.34-6.36 12.16 5.02 2.4 7.44.96 9.87-5.97h-.04ZM95.17 76.66c2.42-2.65 5.07-2.84 7.69-1.6 1.75-.76 1.12-2.58 2.55-3.67 2.08-.86 4.57-.16 6.87-.25a18.9 18.9 0 0 1 8.48 8.2c1.8 9.51.67 17.97-6.28 24.99-3.77.57-6.55-1.66-9.23-3.58-6-4.27-9.67-10.2-11.1-17.45-.48-2.43.67-4.6 1.02-6.67v.03Z"/><path fill="#343333" d="M152.94 176.81c-.13 1.85 1.4 3.29 1.21 5.17-.73.7-1.25.13-1.56-.38-.55-.9-.96-1.85-1.4-2.78-3.62-7.28-7.96-14.07-12.46-20.8-3.06-4.64-7.08-8.47-10.97-12.42-.96-1-2.27-1.76-2.65-3.16.8-.83 1.27-.35 1.78.06a71.97 71.97 0 0 1 17.14 19.85c2.68 4.5 5.3 9.03 7.88 13.53.26.45.33 1 1 1l.03-.07Z"/></svg>